<svg width="100%" height="100%" id="svg" viewBox="0 0 1440 500" xmlns="http://www.w3.org/2000/svg" class="transition duration-300 ease-in-out delay-150"><path d="M 0,500 C 0,500 0,100 0,100 C 36.08274635964119,108.90239385247739 72.16549271928238,117.80478770495479 113,122 C 153.83450728071762,126.19521229504521 199.42077548251166,125.68324303265827 231,112 C 262.57922451748834,98.31675696734173 280.15140535067104,71.46224016441214 319,76 C 357.84859464932896,80.53775983558786 417.97360311480435,116.46779630969317 462,129 C 506.02639688519565,141.53220369030683 533.9541821901116,130.66657459681514 564,126 C 594.0458178098884,121.33342540318486 626.2096681247497,122.8659053030463 666,109 C 705.7903318752503,95.1340946969537 753.2071453108897,65.86980419099966 787,68 C 820.7928546891103,70.13019580900034 840.9617506316914,103.65487793295506 877,119 C 913.0382493683086,134.34512206704494 964.9458521623449,131.5106840771801 1006,124 C 1047.0541478376551,116.48931592281991 1077.2548407189297,104.30238575832466 1109,106 C 1140.7451592810703,107.69761424167534 1174.0347849619363,123.27977288952124 1214,131 C 1253.9652150380637,138.72022711047876 1300.606019433325,138.57852268359045 1344,131 C 1387.393980566675,123.42147731640956 1427.541137304764,108.40613637611702 1443,102 C 1458.458862695236,95.59386362388298 1449.229431347618,97.79693181194149 1440,100 C 1440,100 1440,500 1440,500 Z" stroke="none" stroke-width="0" fill="#f78da744" class="transition-all duration-300 ease-in-out delay-150 path-0"></path><path d="M 0,500 C 0,500 0,200 0,200 C 29.509768715718238,212.84748415610488 59.019537431436476,225.69496831220974 103,223 C 146.98046256856352,220.30503168779026 205.43161898997238,202.06761090726593 240,204 C 274.5683810100276,205.93238909273407 285.25398660867404,228.03458805872648 318,233 C 350.74601339132596,237.96541194127352 405.5524345753316,225.7940368578281 453,215 C 500.4475654246684,204.2059631421719 540.5362750899998,194.78926450996104 574,190 C 607.4637249100002,185.21073549003896 634.3024650646695,185.0489051023277 671,181 C 707.6975349353305,176.9510948976723 754.2538646513226,169.01511508072826 789,178 C 823.7461353486774,186.98488491927174 846.6820763300403,212.89063457475925 879,226 C 911.3179236699597,239.10936542524075 953.0178300285163,239.42234662023472 990,219 C 1026.9821699714837,198.57765337976528 1059.2466035558946,157.4199789443018 1096,164 C 1132.7533964441054,170.5800210556982 1173.9957557479045,224.89773760255827 1209,229 C 1244.0042442520955,233.10226239744173 1272.7703734524873,186.9890706454651 1311,173 C 1349.2296265475127,159.0109293545349 1396.9227504421463,177.1459798155814 1420,187 C 1443.0772495578537,196.8540201844186 1441.538624778927,198.4270100922093 1440,200 C 1440,200 1440,500 1440,500 Z" stroke="none" stroke-width="0" fill="#f78da766" class="transition-all duration-300 ease-in-out delay-150 path-1"></path><path d="M 0,500 C 0,500 0,300 0,300 C 27.266494936180877,316.61828657143275 54.53298987236175,333.2365731428655 91,324 C 127.46701012763825,314.7634268571345 173.13453544673388,279.67199399997077 210,279 C 246.86546455326612,278.32800600002923 274.92886834070276,312.0754508572512 317,323 C 359.07113165929724,333.9245491427488 415.14999119045507,322.02620257102444 451,322 C 486.85000880954493,321.97379742897556 502.47116689747713,333.81973885865096 538,323 C 573.5288331025229,312.18026114134904 628.9653412196361,278.694841994372 669,280 C 709.0346587803639,281.305158005628 733.6674682239781,317.40089316386116 772,320 C 810.3325317760219,322.59910683613884 862.3647858844517,291.70158535018317 904,279 C 945.6352141155483,266.29841464981683 976.8733882382151,271.7927654354061 1004,289 C 1031.126611761785,306.2072345645939 1054.1416611626883,335.1273529081923 1094,330 C 1133.8583388373117,324.8726470918077 1190.559967111032,285.69782293182476 1225,279 C 1259.440032888968,272.30217706817524 1271.6184703931838,298.08135536450874 1310,314 C 1348.3815296068162,329.91864463549126 1412.9661513162332,335.97675561014034 1439,332 C 1465.0338486837668,328.02324438985966 1452.5169243418834,314.0116221949298 1440,300 C 1440,300 1440,500 1440,500 Z" stroke="none" stroke-width="0" fill="#f78da788" class="transition-all duration-300 ease-in-out delay-150 path-2"></path><path d="M 0,500 C 0,500 0,400 0,400 C 32.290145396328015,403.5374436321979 64.58029079265603,407.0748872643958 98,403 C 131.41970920734397,398.9251127356042 165.96898222570394,387.2378945746148 209,392 C 252.03101777429606,396.7621054253852 303.5437803045282,417.973534437145 343,419 C 382.4562196954718,420.026465562855 409.8558965561833,400.8679676768051 446,390 C 482.1441034438167,379.1320323231949 527.0326334707386,376.55459485563455 562,378 C 596.9673665292614,379.44540514436545 622.0135695608622,384.91365290065676 650,401 C 677.9864304391378,417.08634709934324 708.9130882858126,443.79079354173825 755,435 C 801.0869117141874,426.20920645826175 862.3340772958878,381.9231729323902 904,371 C 945.6659227041122,360.0768270676098 967.7506025306354,382.5165147287008 1000,391 C 1032.2493974693646,399.4834852712992 1074.66351258157,394.0107681528067 1114,388 C 1153.33648741843,381.9892318471933 1189.5953471430844,375.4404126600724 1220,389 C 1250.4046528569156,402.5595873399276 1274.9550988460928,436.22758120690355 1315,434 C 1355.0449011539072,431.77241879309645 1410.584257472545,393.6492625123133 1434,382 C 1457.415742527455,370.3507374876867 1448.7078712637276,385.17536874384336 1440,400 C 1440,400 1440,500 1440,500 Z" stroke="none" stroke-width="0" fill="#f78da7ff" class="transition-all duration-300 ease-in-out delay-150 path-3"></path></svg>